<?xml version="1.0" encoding="utf-8"?>
<!-- Generator: Adobe Adobe Illustrator 24.2.0, SVG Export Plug-In . SVG Version: 6.00 Build 0)  -->
<svg version="1.1" xmlns="http://www.w3.org/2000/svg" xmlns:xlink="http://www.w3.org/1999/xlink" x="0px" y="0px" width="1920px"
	 height="1080px" viewBox="0 0 1920 1080" style="enable-background:new 0 0 1920 1080;" xml:space="preserve">
<style type="text/css">
	.st0{fill:#292B2C;stroke:#000000;stroke-miterlimit:10;}
	.st1{fill:#ECF0F1;stroke:#000000;stroke-miterlimit:10;}
</style>
<g id="Background">
	<rect y="-20" class="st0" width="1920" height="1164"/>
	<circle class="st1" cx="1685.03" cy="883.05" r="12.5"/>
	<circle class="st1" cx="1782.45" cy="352.07" r="5.5"/>
</g>
<g id="stars">
	<circle class="st1" cx="208.21" cy="174.12" r="21"/>
	<circle class="st1" cx="608.69" cy="583.5" r="7"/>
	<ellipse class="st1" cx="1276.62" cy="232.94" rx="1.65" ry="1.79"/>
	<circle class="st1" cx="1009.33" cy="870.55" r="11"/>
	<circle class="st1" cx="265.92" cy="76.76" r="5"/>
	<circle class="st1" cx="970.5" cy="163.62" r="10.5"/>
	<circle class="st1" cx="1350.84" cy="634.05" r="14.5"/>
	<circle class="st1" cx="177.66" cy="888.05" r="17.5"/>
	<circle class="st1" cx="922.48" cy="459.42" r="18.5"/>
	<circle class="st1" cx="439.72" cy="469.49" r="7.5"/>
	<circle class="st1" cx="1302.54" cy="1000.71" r="6.5"/>
	<circle class="st1" cx="1358.09" cy="84.01" r="7.25"/>
	<circle class="st1" cx="101.71" cy="318.35" r="7.5"/>
	<circle class="st1" cx="543.15" cy="748.8" r="6.5"/>
	<circle class="st1" cx="508.68" cy="1081.66" r="16"/>
	<circle class="st1" cx="789.23" cy="41.29" r="8"/>
	<circle class="st1" cx="945.98" cy="1032.18" r="5"/>
</g>
<g id="Planet">
</g>
</svg>
